<?xml version="1.0" standalone="no"?>
<!DOCTYPE svg PUBLIC "-//W3C//DTD SVG 20010904//EN"
 "http://www.w3.org/TR/2001/REC-SVG-20010904/DTD/svg10.dtd">
<svg version="1.0" xmlns="http://www.w3.org/2000/svg"
 width="323.000000pt" height="330.000000pt" viewBox="0 0 323.000000 330.000000"
 preserveAspectRatio="xMidYMid meet">

<g transform="translate(0.000000,330.000000) scale(0.100000,-0.100000)"
fill="#000000" stroke="none">
<path d="M0 1650 l0 -1650 1615 0 1615 0 0 1650 0 1650 -1615 0 -1615 0 0
-1650z m1840 1601 c0 -38 -23 -43 -145 -35 l-95 7 0 -37 0 -37 43 5 c23 2 61
8 85 12 42 7 42 7 42 -25 0 -28 3 -31 31 -31 28 0 31 -2 23 -22 -4 -13 -8 -99
-9 -192 l0 -170 45 -11 c102 -26 105 -26 139 6 34 31 46 35 56 19 3 -5 17 2
31 17 18 20 21 29 13 39 -9 11 -3 22 24 50 l35 36 12 -22 c11 -21 13 -22 22
-6 9 16 13 15 39 -10 35 -34 38 -50 4 -28 -13 9 -30 14 -36 12 -15 -5 17 -37
99 -100 l61 -47 -34 -56 c-18 -31 -39 -62 -46 -71 -10 -12 -9 -18 7 -34 19
-19 20 -19 77 31 33 30 63 49 72 46 8 -4 22 -21 31 -39 9 -18 41 -68 70 -111
l53 -78 -26 -12 c-21 -9 -27 -9 -31 1 -2 7 -15 25 -27 40 l-24 27 -35 -34
c-20 -19 -36 -39 -36 -43 0 -5 21 -31 46 -58 l46 -49 -19 -25 c-22 -30 -30
-32 -38 -7 -6 21 -45 59 -45 44 0 -6 9 -22 20 -36 11 -14 20 -30 20 -37 0 -7
11 -44 25 -83 13 -40 29 -92 35 -116 11 -42 12 -43 43 -36 18 4 104 9 191 12
l159 5 -8 -24 c-4 -12 -10 -53 -12 -89 -6 -87 4 -95 116 -92 72 1 82 -1 92
-19 6 -11 8 -22 5 -26 -12 -12 -82 -31 -136 -38 -30 -3 -61 -11 -67 -16 -9 -7
-13 -39 -13 -95 l0 -85 -182 3 -181 4 -29 -92 -28 -91 49 -49 48 -48 -7 -92
c-6 -76 -14 -105 -44 -169 -20 -42 -36 -82 -36 -90 0 -18 -67 -84 -86 -84 -9
0 -34 -11 -57 -24 -57 -33 -143 -57 -203 -55 -44 1 -54 6 -95 46 l-47 45 -65
-26 c-36 -14 -70 -26 -76 -26 -7 0 -11 -41 -11 -120 l0 -119 -30 6 -30 6 0
-144 0 -144 -50 -2 -50 -2 -1 147 c-2 116 -3 133 -9 82 -7 -72 -60 -190 -85
-190 -23 0 -77 117 -86 185 -5 45 -7 25 -6 -80 1 -115 -1 -139 -13 -137 -22 5
-57 -7 -76 -25 -15 -16 -17 -16 -29 0 -15 21 -25 22 -25 2 0 -8 -4 -15 -10
-15 -6 0 -10 96 -10 269 l0 268 -75 28 -74 27 -88 -92 -87 -92 -19 26 c-16 23
-26 26 -75 27 l-57 0 -105 115 c-58 63 -105 118 -105 123 0 22 -15 21 -30 -2
-9 -14 -26 -28 -38 -31 -24 -6 -127 -103 -127 -119 0 -6 -11 0 -24 12 -13 12
-23 30 -21 39 2 9 4 20 4 23 2 16 59 68 67 61 5 -4 4 0 -3 7 -8 10 -9 20 -2
33 5 10 7 18 4 18 -3 0 -1 9 6 21 9 17 7 25 -11 44 -15 16 -20 30 -15 44 3 12
11 18 17 15 7 -5 8 -2 2 7 -13 21 -16 59 -5 59 5 0 18 14 28 30 9 16 22 30 28
31 5 0 39 34 74 75 l63 75 -12 62 c-21 110 -16 105 -122 107 -51 1 -115 1
-143 1 -36 0 -76 10 -140 36 -105 43 -114 49 -86 58 41 13 16 35 -40 35 -19 0
-29 -5 -29 -15 0 -21 -9 -19 -31 7 -21 24 -24 32 -8 22 7 -4 7 1 -1 16 -23 42
-7 53 68 46 47 -4 60 -3 45 4 -29 12 -30 30 -1 30 34 0 8 20 -35 27 -32 5 -37
3 -37 -13 0 -16 -2 -16 -16 4 -8 12 -20 20 -25 17 -5 -4 -9 4 -9 17 0 16 10
30 29 41 17 10 32 26 36 36 3 11 12 22 20 25 8 3 15 15 15 26 0 12 6 20 13 19
34 -4 57 2 57 17 0 12 10 15 48 14 26 -1 115 -1 198 -1 l151 1 16 40 c14 35
14 44 1 69 -17 35 -91 104 -103 96 -5 -2 -12 7 -16 23 -3 15 -17 38 -30 52
-16 17 -22 36 -21 61 1 30 12 46 71 105 39 38 80 84 93 102 13 17 30 32 38 32
8 0 14 9 14 20 0 21 -15 27 -25 10 -4 -7 -14 -2 -26 11 -15 17 -16 25 -8 36 9
10 8 18 -3 31 -18 20 -13 40 16 63 15 13 23 14 28 6 6 -9 10 -9 16 0 9 14 48
-17 68 -52 13 -23 41 -27 36 -6 -2 8 14 31 34 52 29 30 35 41 26 52 -9 11 -4
21 23 47 19 19 38 31 41 27 3 -3 -9 -20 -27 -36 -18 -17 -29 -34 -25 -38 5 -5
15 2 23 15 9 12 22 22 29 22 8 0 13 3 12 8 -1 4 10 20 26 37 29 32 84 43 93
19 2 -7 11 -15 19 -18 9 -3 12 -1 9 4 -3 6 -1 10 4 10 6 0 11 -5 11 -11 0 -5
4 -8 9 -4 11 6 43 -34 36 -45 -8 -13 76 -100 96 -100 10 0 19 4 19 9 0 5 14
14 30 21 l30 12 0 269 0 269 285 0 285 0 0 -29z m-872 -328 c-6 -7 -17 -13
-24 -13 -8 0 -14 -7 -14 -15 0 -22 -17 -18 -23 6 -6 23 -27 17 -27 -7 0 -8 -5
-14 -11 -14 -7 0 -17 -7 -24 -16 -6 -10 -27 -19 -45 -21 -19 -2 -44 -13 -56
-24 -32 -30 -42 -4 -12 29 14 15 31 35 39 45 8 9 39 42 69 72 l54 55 43 -42
c32 -32 40 -45 31 -55z m1325 -149 c-7 -19 -10 -18 -16 5 -3 13 -1 18 9 14 7
-2 10 -11 7 -19z m-1598 -14 c-3 -5 -12 -10 -18 -10 -7 0 -6 4 3 10 19 12 23
12 15 0z m1753 -82 c7 -7 12 -19 12 -27 0 -11 -4 -10 -20 4 -21 19 -26 35 -12
35 4 0 13 -5 20 -12z m135 -151 c6 -17 5 -17 -21 1 -41 30 -65 59 -57 72 8 13
67 -42 78 -73z m77 -39 c22 -23 40 -42 40 -44 0 -7 -78 37 -89 50 -11 13 -8
36 5 36 3 0 23 -19 44 -42z m-2189 -85 c-12 -20 -14 -14 -5 12 4 9 9 14 11 11
3 -2 0 -13 -6 -23z m-328 -905 c17 -27 17 -28 -3 -28 -16 0 -20 7 -20 32 0 17
1 29 3 27 2 -2 11 -16 20 -31z m307 -582 c0 -3 -4 -8 -10 -11 -5 -3 -10 -1
-10 4 0 6 5 11 10 11 6 0 10 -2 10 -4z m268 -342 c-24 -24 -44 -7 -22 17 12
13 21 16 28 9 7 -7 5 -15 -6 -26z"/>
<path d="M1448 3208 c-7 -5 -34 -6 -60 -2 -38 5 -49 3 -54 -10 -9 -24 4 -50
19 -39 6 6 45 9 85 7 l73 -3 -3 26 c-3 28 -34 38 -60 21z"/>
<path d="M1380 2960 c0 -63 2 -70 20 -70 18 0 20 7 20 70 0 63 -2 70 -20 70
-18 0 -20 -7 -20 -70z"/>
<path d="M1500 2957 l0 -70 52 6 c28 4 55 10 60 15 5 5 8 33 6 63 l-3 54 -57
1 -58 1 0 -70z"/>
<path d="M1694 3017 c-3 -8 -4 -39 -2 -68 3 -48 6 -54 26 -57 22 -3 23 -1 20
65 -2 55 -6 68 -21 71 -9 2 -20 -3 -23 -11z"/>
<path d="M1380 2780 c0 -23 4 -30 20 -30 16 0 20 7 20 30 0 23 -4 30 -20 30
-16 0 -20 -7 -20 -30z"/>
<path d="M1500 2784 c0 -22 3 -25 23 -20 12 3 39 6 60 6 30 0 37 4 37 20 0 18
-7 20 -60 20 -58 0 -60 -1 -60 -26z"/>
<path d="M1692 2783 c2 -17 10 -29 21 -31 13 -3 17 3 17 27 0 25 -4 31 -21 31
-16 0 -20 -5 -17 -27z"/>
<path d="M904 2706 c-53 -57 -66 -77 -57 -85 10 -9 30 7 85 65 82 86 87 94 60
94 -10 0 -48 -32 -88 -74z"/>
<path d="M2115 2759 c-3 -4 4 -18 15 -29 24 -24 18 -40 -8 -24 -38 24 -57 -10
-23 -40 21 -19 41 -14 41 10 0 8 11 20 25 26 27 12 32 30 13 45 -19 15 -57 22
-63 12z"/>
<path d="M1034 2695 c-16 -19 -125 -135 -241 -259 -117 -124 -213 -229 -213
-234 0 -14 58 -65 68 -58 5 3 31 43 56 90 92 162 195 275 353 383 l71 49 -25
32 c-13 18 -28 32 -32 32 -4 0 -21 -16 -37 -35z"/>
<path d="M2197 2665 l-37 -44 37 -30 c21 -17 42 -31 48 -31 12 1 55 66 55 85
0 7 -15 24 -33 38 l-34 26 -36 -44z"/>
<path d="M750 2523 l0 -26 25 23 c14 13 25 25 25 27 0 2 -11 3 -25 3 -20 0
-25 -5 -25 -27z"/>
<path d="M2353 2517 c-18 -12 -33 -28 -33 -36 0 -7 14 -31 32 -53 l31 -40 33
38 c18 22 33 44 34 50 0 10 -52 65 -61 63 -2 0 -19 -10 -36 -22z"/>
<path d="M593 2371 c-57 -63 -77 -101 -55 -101 12 0 142 146 142 159 0 26 -29
6 -87 -58z"/>
<path d="M2520 1896 c0 -11 10 -16 31 -16 22 0 46 -12 75 -36 28 -22 52 -34
67 -32 19 3 22 9 22 47 l0 44 -97 4 c-84 4 -98 2 -98 -11z"/>
<path d="M2760 1867 c0 -51 18 -92 49 -114 l22 -15 -3 84 -3 83 -32 3 c-33 3
-33 3 -33 -41z"/>
<path d="M480 1860 c0 -38 2 -40 29 -40 55 0 81 16 81 50 0 30 0 30 -55 30
l-55 0 0 -40z"/>
<path d="M342 1863 c3 -24 8 -28 41 -31 35 -3 37 -2 37 27 0 30 -2 31 -41 31
-38 0 -40 -1 -37 -27z"/>
<path d="M2530 1830 c0 -16 7 -20 35 -20 37 0 43 8 23 28 -20 20 -58 15 -58
-8z"/>
<path d="M245 1789 c-4 -6 -5 -13 -2 -16 7 -7 27 6 27 18 0 12 -17 12 -25 -2z"/>
<path d="M400 1726 c0 -30 3 -57 8 -60 4 -2 8 22 8 55 0 32 -3 59 -8 59 -4 0
-8 -24 -8 -54z"/>
<path d="M474 1755 c-4 -8 -3 -31 0 -50 6 -30 11 -35 34 -35 61 0 72 9 72 56
l0 44 -50 0 c-36 0 -52 -4 -56 -15z"/>
<path d="M2590 1709 l0 -40 48 7 c57 8 62 11 62 33 0 28 -21 41 -67 41 l-43 0
0 -41z"/>
<path d="M2760 1717 c0 -40 10 -46 30 -21 11 13 10 19 -8 37 l-22 21 0 -37z"/>
<path d="M270 1720 c0 -5 11 -10 25 -10 14 0 25 5 25 10 0 6 -11 10 -25 10
-14 0 -25 -4 -25 -10z"/>
<path d="M2870 1712 c0 -5 14 -9 30 -10 17 0 30 4 30 9 0 5 -13 9 -30 9 -16 0
-30 -4 -30 -8z"/>
<path d="M2800 1667 c-27 -22 -40 -56 -40 -101 0 -50 10 -61 46 -52 23 6 24
10 24 86 0 81 -3 89 -30 67z"/>
<path d="M240 1650 c0 -13 20 -13 40 0 12 8 9 10 -12 10 -16 0 -28 -4 -28 -10z"/>
<path d="M474 1606 c-3 -9 -3 -27 0 -41 6 -23 11 -25 62 -25 l55 0 -3 38 -3
37 -53 3 c-40 2 -54 -1 -58 -12z"/>
<path d="M2524 1605 c-13 -33 25 -47 59 -21 27 21 20 36 -18 36 -22 0 -38 -6
-41 -15z"/>
<path d="M2622 1581 c-33 -29 -49 -36 -71 -33 -31 4 -50 -13 -33 -30 7 -7 44
-8 106 -3 l96 7 0 49 c0 47 -1 49 -27 49 -18 -1 -44 -15 -71 -39z"/>
<path d="M342 1578 c3 -31 6 -33 41 -34 36 -1 37 0 37 32 0 33 -1 34 -41 34
-39 0 -40 -1 -37 -32z"/>
<path d="M635 1214 c-54 -62 -61 -79 -46 -108 18 -32 58 -22 100 27 36 40 37
66 4 106 l-18 21 -40 -46z"/>
<path d="M2394 1194 c-72 -125 -181 -249 -281 -321 -65 -46 -74 -62 -47 -84
13 -10 21 -9 47 6 86 50 266 242 336 358 l24 39 -26 25 -25 25 -28 -48z"/>
<path d="M483 1113 c-3 -10 -8 -22 -10 -28 -3 -5 3 -1 11 9 16 20 21 36 11 36
-3 0 -8 -8 -12 -17z"/>
<path d="M722 1086 c-18 -20 -32 -42 -32 -49 0 -7 15 -28 34 -46 l34 -33 31
33 c17 19 30 39 31 44 0 6 -15 27 -33 49 l-33 38 -32 -36z"/>
<path d="M541 995 c-17 -19 -34 -35 -39 -35 -5 0 -14 -6 -20 -13 -8 -10 -6
-13 9 -14 19 -2 99 69 99 88 0 18 -19 8 -49 -26z"/>
<path d="M2436 999 c-12 -15 -15 -24 -7 -32 7 -7 13 -2 21 18 13 35 9 40 -14
14z"/>
<path d="M870 945 c-15 -18 -6 -45 13 -45 8 0 20 7 27 15 10 12 10 18 0 30
-16 19 -24 19 -40 0z"/>
<path d="M2382 938 c-14 -14 -16 -38 -3 -38 15 0 30 25 22 38 -5 9 -10 9 -19
0z"/>
<path d="M467 901 c-4 -17 -3 -21 5 -13 5 5 8 16 6 23 -3 8 -7 3 -11 -10z"/>
<path d="M696 878 c19 -31 53 -68 123 -133 35 -33 62 -55 60 -48 -6 18 -169
193 -180 193 -6 0 -7 -6 -3 -12z"/>
<path d="M939 872 c-8 -9 -28 -28 -44 -41 l-30 -23 58 -54 c32 -30 64 -54 72
-54 15 0 105 84 105 98 0 9 -124 92 -137 92 -5 0 -15 -8 -24 -18z"/>
<path d="M2327 879 c-9 -6 -17 -14 -17 -19 0 -16 30 -11 37 5 8 21 1 25 -20
14z"/>
<path d="M2255 809 c-4 -6 -5 -12 -2 -15 7 -7 37 7 37 17 0 13 -27 11 -35 -2z"/>
<path d="M1690 670 c0 -21 4 -30 13 -27 6 2 12 14 12 27 0 13 -6 25 -12 28 -9
2 -13 -7 -13 -28z"/>
<path d="M1420 664 c0 -31 23 -28 28 4 2 15 -2 22 -12 22 -11 0 -16 -9 -16
-26z"/>
<path d="M1522 668 c3 -20 9 -23 43 -23 34 0 40 3 43 23 3 20 -1 22 -43 22
-42 0 -46 -2 -43 -22z"/>
<path d="M1642 660 c0 -14 2 -19 5 -12 2 6 2 18 0 25 -3 6 -5 1 -5 -13z"/>
<path d="M1637 610 c-3 -11 -1 -20 4 -20 5 0 9 9 9 20 0 11 -2 20 -4 20 -2 0
-6 -9 -9 -20z"/>
<path d="M1480 605 c0 -8 4 -15 10 -15 5 0 7 7 4 15 -4 8 -8 15 -10 15 -2 0
-4 -7 -4 -15z"/>
<path d="M1524 536 c-4 -11 1 -25 14 -39 18 -18 25 -19 47 -9 18 8 25 19 25
39 l0 26 -24 -22 -24 -22 -16 22 c-14 20 -16 21 -22 5z"/>
<path d="M1349 492 c-25 -5 -30 -42 -11 -81 12 -26 16 -57 14 -111 -1 -55 1
-70 8 -58 6 10 9 67 8 135 -3 104 -5 118 -19 115z"/>
<path d="M1392 465 c0 -16 2 -22 5 -12 2 9 2 23 0 30 -3 6 -5 -1 -5 -18z"/>
<path d="M1423 410 c0 -47 2 -66 4 -42 2 23 2 61 0 85 -2 23 -4 4 -4 -43z"/>
<path d="M1442 470 c0 -14 2 -19 5 -12 2 6 2 18 0 25 -3 6 -5 1 -5 -13z"/>
<path d="M1684 385 c0 -60 1 -84 3 -52 2 32 2 81 0 110 -2 29 -3 3 -3 -58z"/>
<path d="M1704 405 c0 -49 1 -71 3 -48 2 23 2 64 0 90 -2 26 -3 8 -3 -42z"/>
<path d="M1734 375 c0 -55 1 -76 3 -47 2 29 2 74 0 100 -2 26 -3 2 -3 -53z"/>
<path d="M1405 280 c-4 -7 -3 -16 3 -22 14 -14 47 -6 47 12 0 18 -40 26 -50
10z"/>
</g>
</svg>
